Story: An extraterrestrial race arrives on Earth with seemingly good intentions, only to slowly reveal their true machinations the more ingrained into society they become.

Genres: Drama | Sci-Fi | Thriller 


-This files are NOT made by me nor I take any credit for them, Enjoy-


Some requirements:

People in order to motivate me doing this, 

- please do comment(good or bad) and 
- do make a +1 or -1 vote too, not nessesary but again I'm not obligated to provide this files ;-}


- Sorry for the quality, its acceptable but I rarely encode files but when I do the are superb quality- (I can characterize this video as v:04, A:05 ..maybe I'm cruel to me but re-encoding a video is not good move - Original file can be found here: 
http://thepiratebay.org/torrent/6201706/V_%28The_visitors_series%29_Season_2__Episode_7_-_720p_%28NO_SUBS%29_ -

Devoted to greenlad, some info about the file:
		
Format                           : Matroska
File size                        : 247 MiB
Duration                         : 40mn 53s
Overall bit rate                 : 844 Kbps
Writing application              : HandBrake 0.9.5
Writing library                  : libmkv 0.6.4.1

Video
ID                               : 1
Format                           : AVC
Format/Info                      : Advanced Video Codec
Format profile                   : High@L2.2
Format settings, CABAC           : Yes
Format settings, ReFrames        : 3 frames
Codec ID                         : V_MPEG4/ISO/AVC
Duration                         : 40mn 53s
Bit rate                         : 773 Kbps
Width                            : 608 pixels
Height                           : 336 pixels
Display aspect ratio             : 16:9
Original display aspect ratio    : 16:9
Frame rate mode                  : Variable
Frame rate                       : 23.976 fps
Color space                      : YUV
Chroma subsampling               : 4:2:0
Bit depth                        : 8 bits
Scan type                        : Progressive
Bits/(Pixel*Frame)               : 0.158
Stream size                      : 223 MiB (90%)
Writing library                  : x264 core 112
Encoding settings                : cabac=1 / ref=4 / deblock=1:2:2 / analyse=0x3:0x113 / me=tesa / subme=10 / psy=1 / psy_rd=1.00:0.50 / mixed_ref=0 / me_range=16 / chroma_me=1 / trellis=2 / 8x8dct=1 / cqm=0 / deadzone=21,11 / fast_pskip=1 / chroma_qp_offset=-4 / threads=6 / sliced_threads=0 / nr=0 / decimate=1 / interlaced=0 / constrained_intra=0 / bframes=4 / b_pyramid=1 / b_adapt=2 / b_bias=0 / direct=3 / weightb=0 / open_gop=0 / weightp=2 / keyint=240 / keyint_min=23 / scenecut=40 / intra_refresh=0 / rc_lookahead=40 / rc=2pass / mbtree=1 / bitrate=773 / ratetol=1.0 / qcomp=0.60 / qpmin=3 / qpmax=51 / qpstep=4 / cplxblur=20.0 / qblur=0.5 / ip_ratio=1.40 / aq=1:1.00
Language                         : English
Color primaries                  : BT.709-5, BT.1361, IEC 61966-2-4, SMPTE RP177
Transfer characteristics         : BT.709-5, BT.1361
Matrix coefficients              : BT.709-5, BT.1361, IEC 61966-2-4 709, SMPTE RP177

Audio
ID                               : 2
Format                           : Vorbis
Format settings, Floor           : 1
Codec ID                         : A_VORBIS
Duration                         : 40mn 53s
Bit rate mode                    : Constant
Bit rate                         : 64.0 Kbps
Channel(s)                       : 2 channels
Sampling rate                    : 48.0 KHz
Compression mode                 : Lossy
Stream size                      : 18.7 MiB (8%)
Writing library                  : aoTuV Beta 5 (UTC 2006-10-24)
Language                         : un